<?xml version="1.0" encoding="UTF-8" standalone="no"?>
<!DOCTYPE svg PUBLIC "-//W3C//DTD SVG 1.1//EN"
 "http://www.w3.org/Graphics/SVG/1.1/DTD/svg11.dtd">
<!-- Generated by graphviz version 2.38.0 (20140413.2041)
 -->
<!-- Title: models_diagram Pages: 1 -->
<svg width="467pt" height="230pt"
 viewBox="0.00 0.00 467.34 230.00" xmlns="http://www.w3.org/2000/svg" xmlns:xlink="http://www.w3.org/1999/xlink">
<g id="graph0" class="graph" transform="scale(1 1) rotate(0) translate(4 226)">
<title>models_diagram</title>
<polygon fill="none" stroke="none" points="-4,4 -4,-226 463.343,-226 463.343,4 -4,4"/>
<!-- _diagram_info -->
<g id="node1" class="node"><title>_diagram_info</title>
<text text-anchor="start" x="8" y="-207.6" font-family="Times,serif" font-size="13.00">Models diagram</text>
<text text-anchor="start" x="8" y="-193.6" font-family="Times,serif" font-size="13.00">Date: Apr 18 2017 &#45; 21:56</text>
<text text-anchor="start" x="8" y="-179.6" font-family="Times,serif" font-size="13.00">Migration version: 20170419020027</text>
<text text-anchor="start" x="8" y="-165.6" font-family="Times,serif" font-size="13.00">Generated by RailRoady 1.5.2</text>
<text text-anchor="start" x="8" y="-151.6" font-family="Times,serif" font-size="13.00">http://railroady.prestonlee.com</text>
</g>
<!-- Inventory -->
<g id="node2" class="node"><title>Inventory</title>
<ellipse fill="none" stroke="black" cx="305" cy="-18" rx="44.6926" ry="18"/>
<text text-anchor="middle" x="305" y="-14.3" font-family="Times,serif" font-size="14.00">Inventory</text>
</g>
<!-- User -->
<g id="node3" class="node"><title>User</title>
<ellipse fill="none" stroke="black" cx="259" cy="-183" rx="27.0966" ry="18"/>
<text text-anchor="middle" x="259" y="-179.3" font-family="Times,serif" font-size="14.00">User</text>
</g>
<!-- Work -->
<g id="node5" class="node"><title>Work</title>
<ellipse fill="none" stroke="black" cx="259" cy="-90" rx="31.3957" ry="18"/>
<text text-anchor="middle" x="259" y="-86.3" font-family="Times,serif" font-size="14.00">Work</text>
</g>
<!-- User&#45;&gt;Work -->
<g id="edge1" class="edge"><title>User&#45;&gt;Work</title>
<path fill="none" stroke="#4364da" d="M259,-156.729C259,-144.725 259,-130.362 259,-118.129"/>
<ellipse fill="none" stroke="#4364da" cx="259" cy="-160.884" rx="4" ry="4"/>
<polygon fill="#4364da" stroke="#4364da" points="259,-118.04 263.5,-108.04 259,-113.04 259,-108.04 259,-108.04 259,-108.04 259,-113.04 254.5,-108.04 259,-118.04 259,-118.04"/>
</g>
<!-- ApplicationRecord -->
<g id="node4" class="node"><title>ApplicationRecord</title>
<ellipse fill="none" stroke="black" cx="382" cy="-183" rx="77.1866" ry="18"/>
<text text-anchor="middle" x="382" y="-179.3" font-family="Times,serif" font-size="14.00">ApplicationRecord</text>
</g>
<!-- Work&#45;&gt;Inventory -->
<g id="edge2" class="edge"><title>Work&#45;&gt;Inventory</title>
<path fill="none" stroke="#8a7fc6" d="M274.197,-65.8736C279.069,-58.4603 284.47,-50.2407 289.372,-42.7813"/>
<ellipse fill="none" stroke="#8a7fc6" cx="271.866" cy="-69.4218" rx="4.00002" ry="4.00002"/>
<ellipse fill="#8a7fc6" stroke="#8a7fc6" cx="291.873" cy="-38.9762" rx="4.00002" ry="4.00002"/>
</g>
<!-- Category -->
<g id="node6" class="node"><title>Category</title>
<ellipse fill="none" stroke="black" cx="351" cy="-90" rx="42.7926" ry="18"/>
<text text-anchor="middle" x="351" y="-86.3" font-family="Times,serif" font-size="14.00">Category</text>
</g>
<!-- Category&#45;&gt;Inventory -->
<g id="edge3" class="edge"><title>Category&#45;&gt;Inventory</title>
<path fill="none" stroke="#82c3c5" d="M335.574,-65.5255C331.018,-58.5919 326.015,-50.9789 321.399,-43.9555"/>
<ellipse fill="none" stroke="#82c3c5" cx="337.902" cy="-69.0681" rx="4.00002" ry="4.00002"/>
<polygon fill="#82c3c5" stroke="#82c3c5" points="321.315,-43.827 319.584,-32.9986 318.569,-39.6485 315.823,-35.4699 315.823,-35.4699 315.823,-35.4699 318.569,-39.6485 312.062,-37.9413 321.315,-43.827 321.315,-43.827"/>
</g>
</g>
</svg>
