<?xml version="1.0" encoding="UTF-8" standalone="no"?>
<!DOCTYPE svg PUBLIC "-//W3C//DTD SVG 1.1//EN"
 "http://www.w3.org/Graphics/SVG/1.1/DTD/svg11.dtd">
<!-- Generated by graphviz version 2.38.0 (20140413.2041)
 -->
<!-- Title: models_diagram Pages: 1 -->
<svg width="746pt" height="431pt"
 viewBox="0.00 0.00 746.00 431.00" xmlns="http://www.w3.org/2000/svg" xmlns:xlink="http://www.w3.org/1999/xlink">
<g id="graph0" class="graph" transform="scale(1 1) rotate(0) translate(4 427)">
<title>models_diagram</title>
<polygon fill="none" stroke="none" points="-4,4 -4,-427 742,-427 742,4 -4,4"/>
<!-- _diagram_info -->
<g id="node1" class="node"><title>_diagram_info</title>
<text text-anchor="start" x="8" y="-394.1" font-family="Times,serif" font-size="13.00">Models diagram</text>
<text text-anchor="start" x="8" y="-380.1" font-family="Times,serif" font-size="13.00">Date: Apr 18 2017 &#45; 21:56</text>
<text text-anchor="start" x="8" y="-366.1" font-family="Times,serif" font-size="13.00">Migration version: 20170419020027</text>
<text text-anchor="start" x="8" y="-352.1" font-family="Times,serif" font-size="13.00">Generated by RailRoady 1.5.2</text>
<text text-anchor="start" x="8" y="-338.1" font-family="Times,serif" font-size="13.00">http://railroady.prestonlee.com</text>
</g>
<!-- Inventory -->
<g id="node2" class="node"><title>Inventory</title>
<path fill="none" stroke="black" d="M375,-0.5C375,-0.5 595,-0.5 595,-0.5 601,-0.5 607,-6.5 607,-12.5 607,-12.5 607,-124.5 607,-124.5 607,-130.5 601,-136.5 595,-136.5 595,-136.5 375,-136.5 375,-136.5 369,-136.5 363,-130.5 363,-124.5 363,-124.5 363,-12.5 363,-12.5 363,-6.5 369,-0.5 375,-0.5"/>
<text text-anchor="middle" x="485" y="-121.3" font-family="Times,serif" font-size="14.00">Inventory</text>
<polyline fill="none" stroke="black" points="363,-113.5 607,-113.5 "/>
<text text-anchor="start" x="371" y="-98.3" font-family="Times,serif" font-size="14.00">id :integer</text>
<text text-anchor="start" x="371" y="-83.3" font-family="Times,serif" font-size="14.00">serial_num :character varying</text>
<text text-anchor="start" x="371" y="-68.3" font-family="Times,serif" font-size="14.00">size :integer</text>
<text text-anchor="start" x="371" y="-53.3" font-family="Times,serif" font-size="14.00">description :character varying</text>
<text text-anchor="start" x="371" y="-38.3" font-family="Times,serif" font-size="14.00">category_id :integer</text>
<text text-anchor="start" x="371" y="-23.3" font-family="Times,serif" font-size="14.00">created_at :timestamp without time zone</text>
<text text-anchor="start" x="371" y="-8.3" font-family="Times,serif" font-size="14.00">updated_at :timestamp without time zone</text>
</g>
<!-- User -->
<g id="node3" class="node"><title>User</title>
<path fill="none" stroke="black" d="M244,-316.5C244,-316.5 464,-316.5 464,-316.5 470,-316.5 476,-322.5 476,-328.5 476,-328.5 476,-410.5 476,-410.5 476,-416.5 470,-422.5 464,-422.5 464,-422.5 244,-422.5 244,-422.5 238,-422.5 232,-416.5 232,-410.5 232,-410.5 232,-328.5 232,-328.5 232,-322.5 238,-316.5 244,-316.5"/>
<text text-anchor="middle" x="354" y="-407.3" font-family="Times,serif" font-size="14.00">User</text>
<polyline fill="none" stroke="black" points="232,-399.5 476,-399.5 "/>
<text text-anchor="start" x="240" y="-384.3" font-family="Times,serif" font-size="14.00">id :integer</text>
<text text-anchor="start" x="240" y="-369.3" font-family="Times,serif" font-size="14.00">name :character varying</text>
<text text-anchor="start" x="240" y="-354.3" font-family="Times,serif" font-size="14.00">email :character varying</text>
<text text-anchor="start" x="240" y="-339.3" font-family="Times,serif" font-size="14.00">created_at :timestamp without time zone</text>
<text text-anchor="start" x="240" y="-324.3" font-family="Times,serif" font-size="14.00">updated_at :timestamp without time zone</text>
</g>
<!-- Work -->
<g id="node5" class="node"><title>Work</title>
<path fill="none" stroke="black" d="M244,-173.5C244,-173.5 464,-173.5 464,-173.5 470,-173.5 476,-179.5 476,-185.5 476,-185.5 476,-267.5 476,-267.5 476,-273.5 470,-279.5 464,-279.5 464,-279.5 244,-279.5 244,-279.5 238,-279.5 232,-273.5 232,-267.5 232,-267.5 232,-185.5 232,-185.5 232,-179.5 238,-173.5 244,-173.5"/>
<text text-anchor="middle" x="354" y="-264.3" font-family="Times,serif" font-size="14.00">Work</text>
<polyline fill="none" stroke="black" points="232,-256.5 476,-256.5 "/>
<text text-anchor="start" x="240" y="-241.3" font-family="Times,serif" font-size="14.00">id :integer</text>
<text text-anchor="start" x="240" y="-226.3" font-family="Times,serif" font-size="14.00">description :character varying</text>
<text text-anchor="start" x="240" y="-211.3" font-family="Times,serif" font-size="14.00">user_id :integer</text>
<text text-anchor="start" x="240" y="-196.3" font-family="Times,serif" font-size="14.00">created_at :timestamp without time zone</text>
<text text-anchor="start" x="240" y="-181.3" font-family="Times,serif" font-size="14.00">updated_at :timestamp without time zone</text>
</g>
<!-- User&#45;&gt;Work -->
<g id="edge1" class="edge"><title>User&#45;&gt;Work</title>
<path fill="none" stroke="#437450" d="M354,-308.194C354,-302.154 354,-296.013 354,-289.952"/>
<ellipse fill="none" stroke="#437450" cx="354" cy="-312.397" rx="4" ry="4"/>
<polygon fill="#437450" stroke="#437450" points="354,-289.859 358.5,-279.859 354,-284.859 354,-279.859 354,-279.859 354,-279.859 354,-284.859 349.5,-279.859 354,-289.859 354,-289.859"/>
</g>
<!-- ApplicationRecord -->
<g id="node4" class="node"><title>ApplicationRecord</title>
<ellipse fill="none" stroke="black" cx="571" cy="-369.5" rx="77.1866" ry="18"/>
<text text-anchor="middle" x="571" y="-365.8" font-family="Times,serif" font-size="14.00">ApplicationRecord</text>
</g>
<!-- Work&#45;&gt;Inventory -->
<g id="edge2" class="edge"><title>Work&#45;&gt;Inventory</title>
<path fill="none" stroke="#6f434e" d="M403.339,-166.745C409.772,-159.084 416.428,-151.159 423.035,-143.29"/>
<ellipse fill="none" stroke="#6f434e" cx="400.558" cy="-170.057" rx="4.00002" ry="4.00002"/>
<ellipse fill="#6f434e" stroke="#6f434e" cx="425.996" cy="-139.765" rx="4.00002" ry="4.00002"/>
</g>
<!-- Category -->
<g id="node6" class="node"><title>Category</title>
<path fill="none" stroke="black" d="M506,-181C506,-181 726,-181 726,-181 732,-181 738,-187 738,-193 738,-193 738,-260 738,-260 738,-266 732,-272 726,-272 726,-272 506,-272 506,-272 500,-272 494,-266 494,-260 494,-260 494,-193 494,-193 494,-187 500,-181 506,-181"/>
<text text-anchor="middle" x="616" y="-256.8" font-family="Times,serif" font-size="14.00">Category</text>
<polyline fill="none" stroke="black" points="494,-249 738,-249 "/>
<text text-anchor="start" x="502" y="-233.8" font-family="Times,serif" font-size="14.00">id :integer</text>
<text text-anchor="start" x="502" y="-218.8" font-family="Times,serif" font-size="14.00">name :character varying</text>
<text text-anchor="start" x="502" y="-203.8" font-family="Times,serif" font-size="14.00">created_at :timestamp without time zone</text>
<text text-anchor="start" x="502" y="-188.8" font-family="Times,serif" font-size="14.00">updated_at :timestamp without time zone</text>
</g>
<!-- Category&#45;&gt;Inventory -->
<g id="edge3" class="edge"><title>Category&#45;&gt;Inventory</title>
<path fill="none" stroke="#2c2070" d="M573.221,-174.557C565.111,-164.899 556.47,-154.61 547.89,-144.392"/>
<ellipse fill="none" stroke="#2c2070" cx="575.888" cy="-177.733" rx="4.00002" ry="4.00002"/>
<polygon fill="#2c2070" stroke="#2c2070" points="547.78,-144.261 544.796,-133.709 544.565,-140.432 541.349,-136.603 541.349,-136.603 541.349,-136.603 544.565,-140.432 537.903,-139.497 547.78,-144.261 547.78,-144.261"/>
</g>
</g>
</svg>
